<?xml version="1.0" standalone="yes"?>
<!-- SVG graphic -->
<svg xmlns='http://www.w3.org/2000/svg' xmlns:xlink='http://www.w3.org/1999/xlink'
width="4000px" height="6000px" preserveAspectRatio="xMinYMin meet" viewBox="0 0 4000 6000" version="1.1">
<image x="0" y="0" width="4000px" height="3000px" opacity="1" xlink:href="D:\/imageData/tianjin/DJI_0/DJI_0001.JPG"/>
<image x="0" y="3000" width="4000px" height="3000px" opacity="1" xlink:href="D:\/imageData/tianjin/DJI_0/DJI_0002.JPG"/>
<polyline points="3709.35,174.701,657.516,4030.4" stroke="rgb(255,174,0)" stroke-width="2" fill="none"/>
<polyline points="2235.18,216.391,154.021,3668.33" stroke="rgb(55,255,0)" stroke-width="2" fill="none"/>
<polyline points="3948.24,228.352,502.482,3577.99" stroke="rgb(0,110,255)" stroke-width="2" fill="none"/>
<polyline points="3982.53,283.839,60.073,3572.94" stroke="rgb(0,85,255)" stroke-width="2" fill="none"/>
<polyline points="3511.85,373.598,497.116,4063.52" stroke="rgb(131,255,0)" stroke-width="2" fill="none"/>
<polyline points="2147.13,534.859,2144.86,4443.81" stroke="rgb(17,0,255)" stroke-width="2" fill="none"/>
<polyline points="2098.22,562.216,2777.76,3555.28" stroke="rgb(255,0,178)" stroke-width="2" fill="none"/>
<polyline points="704.999,566.733,1882.6,3347.99" stroke="rgb(0,178,255)" stroke-width="2" fill="none"/>
<polyline points="2085.8,635.492,1418.51,4015.77" stroke="rgb(255,0,161)" stroke-width="2" fill="none"/>
<polyline points="2144.94,651.841,1692.67,3466.23" stroke="rgb(255,0,68)" stroke-width="2" fill="none"/>
<polyline points="3586.45,661.833,2811.34,3526.56" stroke="rgb(255,0,233)" stroke-width="2" fill="none"/>
<polyline points="2766.77,702.952,2687.79,3938.91" stroke="rgb(233,255,0)" stroke-width="2" fill="none"/>
<polyline points="3050.87,718.877,3691.6,3583.24" stroke="rgb(4,0,255)" stroke-width="2" fill="none"/>
<polyline points="2669.84,719.106,1052.87,3566.49" stroke="rgb(114,0,255)" stroke-width="2" fill="none"/>
<polyline points="2099.95,726.586,764.749,4004.39" stroke="rgb(4,0,255)" stroke-width="2" fill="none"/>
<polyline points="2528.18,733.662,125.997,3573.56" stroke="rgb(0,255,46)" stroke-width="2" fill="none"/>
<polyline points="3523.9,754.558,1535.83,5836.1" stroke="rgb(21,255,0)" stroke-width="2" fill="none"/>
<polyline points="1613.87,907.969,214.235,4691.57" stroke="rgb(246,255,0)" stroke-width="2" fill="none"/>
<polyline points="3259.8,933.405,3568.57,4985.38" stroke="rgb(0,255,114)" stroke-width="2" fill="none"/>
<polyline points="573.927,1051.71,78.7414,4831.75" stroke="rgb(255,153,0)" stroke-width="2" fill="none"/>
<polyline points="1176.16,1074.98,2433.36,3665.04" stroke="rgb(255,0,38)" stroke-width="2" fill="none"/>
<polyline points="1740.91,1342.9,1717.62,3955.38" stroke="rgb(0,153,255)" stroke-width="2" fill="none"/>
<polyline points="3941.72,1393.89,763.673,4479.87" stroke="rgb(255,0,246)" stroke-width="2" fill="none"/>
<polyline points="2544.4,1413.22,3525.23,5837.17" stroke="rgb(0,255,140)" stroke-width="2" fill="none"/>
<polyline points="3367.01,1492.44,179.355,4580.6" stroke="rgb(221,0,255)" stroke-width="2" fill="none"/>
<polyline points="3317.5,1493.61,243.78,4581.2" stroke="rgb(0,255,93)" stroke-width="2" fill="none"/>
<polyline points="2377.55,1520.39,327.42,4652.04" stroke="rgb(0,255,89)" stroke-width="2" fill="none"/>
<polyline points="3429.99,1528.76,57.0711,4618.96" stroke="rgb(255,0,17)" stroke-width="2" fill="none"/>
<polyline points="3669.06,1544.83,489.545,4630.81" stroke="rgb(161,0,255)" stroke-width="2" fill="none"/>
<polyline points="2787.05,1569.92,175.454,4708.39" stroke="rgb(106,255,0)" stroke-width="2" fill="none"/>
<polyline points="3608.89,1584.54,429.354,4673.42" stroke="rgb(255,199,0)" stroke-width="2" fill="none"/>
<polyline points="3617.97,1616.96,440.805,4704.8" stroke="rgb(0,255,25)" stroke-width="2" fill="none"/>
<polyline points="3638.99,1709.66,459.158,4796.71" stroke="rgb(255,46,0)" stroke-width="2" fill="none"/>
<polyline points="3490.36,1741.5,3676.9,5099.06" stroke="rgb(255,76,0)" stroke-width="2" fill="none"/>
<polyline points="3604.17,1751.11,2965.76,5254.98" stroke="rgb(216,255,0)" stroke-width="2" fill="none"/>
<polyline points="1651.66,1772.8,2441.18,5698.79" stroke="rgb(33,255,0)" stroke-width="2" fill="none"/>
<polyline points="2460.52,1777.42,2584.89,5869.89" stroke="rgb(55,255,0)" stroke-width="2" fill="none"/>
<polyline points="1977.11,1777.81,2414.93,4997.75" stroke="rgb(255,80,0)" stroke-width="2" fill="none"/>
<polyline points="683.41,1811.7,2138.45,4720.16" stroke="rgb(21,255,0)" stroke-width="2" fill="none"/>
<polyline points="1134.6,1843.6,3573.67,4209.8" stroke="rgb(0,255,229)" stroke-width="2" fill="none"/>
<polyline points="822.621,1845.41,1738.91,4399.08" stroke="rgb(97,0,255)" stroke-width="2" fill="none"/>
<polyline points="3631.53,1859.87,3568.55,4900.56" stroke="rgb(255,216,0)" stroke-width="2" fill="none"/>
<polyline points="3639.06,1948.03,3298.11,3986.13" stroke="rgb(255,8,0)" stroke-width="2" fill="none"/>
<polyline points="3709.26,1997.85,546.205,5088.86" stroke="rgb(114,255,0)" stroke-width="2" fill="none"/>
<polyline points="3581.44,2005.97,416.197,5100.37" stroke="rgb(255,140,0)" stroke-width="2" fill="none"/>
<polyline points="1111.61,2006.86,3144.16,4898.9" stroke="rgb(255,0,68)" stroke-width="2" fill="none"/>
<polyline points="3798.54,2009.6,636.636,5099.39" stroke="rgb(255,89,0)" stroke-width="2" fill="none"/>
<polyline points="3721.03,2016.71,557.883,5108.08" stroke="rgb(0,255,131)" stroke-width="2" fill="none"/>
<polyline points="3261.33,2017.94,82.7302,5120" stroke="rgb(0,255,225)" stroke-width="2" fill="none"/>
<polyline points="3356.85,2018.93,183.948,5118.39" stroke="rgb(255,119,0)" stroke-width="2" fill="none"/>
<polyline points="3613.86,2028.51,448.456,5122.69" stroke="rgb(255,0,55)" stroke-width="2" fill="none"/>
<polyline points="3811.26,2039.9,650.024,5130.15" stroke="rgb(186,0,255)" stroke-width="2" fill="none"/>
<polyline points="3741.38,2041.09,579.645,5132.8" stroke="rgb(93,0,255)" stroke-width="2" fill="none"/>
<polyline points="2978.84,2041.35,2170.25,5856.4" stroke="rgb(255,0,12)" stroke-width="2" fill="none"/>
<polyline points="3489.51,2041.86,321.129,5138.58" stroke="rgb(0,12,255)" stroke-width="2" fill="none"/>
<polyline points="3612.52,2042.2,447.82,5136.39" stroke="rgb(80,0,255)" stroke-width="2" fill="none"/>
<polyline points="3249.88,2047,69.8875,5148.83" stroke="rgb(157,255,0)" stroke-width="2" fill="none"/>
<polyline points="3759.85,2051.93,597.782,5143.31" stroke="rgb(255,89,0)" stroke-width="2" fill="none"/>
<polyline points="3667.23,2052.33,505.091,5145.97" stroke="rgb(0,255,208)" stroke-width="2" fill="none"/>
<polyline points="3725.43,2054.74,563.217,5146.82" stroke="rgb(255,246,0)" stroke-width="2" fill="none"/>
<polyline points="3284.56,2061.43,107.553,5163.81" stroke="rgb(187,255,0)" stroke-width="2" fill="none"/>
<polyline points="3406.62,2062.63,235.607,5162.14" stroke="rgb(0,255,148)" stroke-width="2" fill="none"/>
<polyline points="3347.5,2073.19,172.634,5173.87" stroke="rgb(0,42,255)" stroke-width="2" fill="none"/>
<polyline points="3378.78,2087.52,204.882,5188.39" stroke="rgb(255,178,0)" stroke-width="2" fill="none"/>
<polyline points="3333.6,2096.99,157.748,5199.18" stroke="rgb(203,0,255)" stroke-width="2" fill="none"/>
<polyline points="3308.62,2099.33,133.531,5202.94" stroke="rgb(0,59,255)" stroke-width="2" fill="none"/>
<polyline points="3719.96,2294.94,564.401,5390.88" stroke="rgb(255,170,0)" stroke-width="2" fill="none"/>
<polyline points="3743.5,2296.26,588.033,5391.93" stroke="rgb(255,0,246)" stroke-width="2" fill="none"/>
<polyline points="3822.79,2302.92,2563.4,4800.67" stroke="rgb(0,237,255)" stroke-width="2" fill="none"/>
<polyline points="3823.77,2334.2,667.249,5428.09" stroke="rgb(255,0,136)" stroke-width="2" fill="none"/>
<polyline points="3661.55,2344.35,502.091,5443.65" stroke="rgb(144,255,0)" stroke-width="2" fill="none"/>
<polyline points="2915.67,2344.55,1357.51,5520.86" stroke="rgb(255,191,0)" stroke-width="2" fill="none"/>
<polyline points="3976.12,2355.25,821.161,5444.55" stroke="rgb(255,212,0)" stroke-width="2" fill="none"/>
<polyline points="3684.63,2378.79,526.793,5478.49" stroke="rgb(38,0,255)" stroke-width="2" fill="none"/>
<polyline points="3953.2,2384.11,799.46,5473.78" stroke="rgb(42,0,255)" stroke-width="2" fill="none"/>
<polyline points="3595.77,2393.11,3589.29,5404.05" stroke="rgb(0,42,255)" stroke-width="2" fill="none"/>
<polyline points="3920.07,2406.75,765.074,5494.35" stroke="rgb(25,0,255)" stroke-width="2" fill="none"/>
<polyline points="3968.77,2482.15,811.941,5571.63" stroke="rgb(0,255,89)" stroke-width="2" fill="none"/>
<polyline points="3918.64,2491.63,764.783,5584.87" stroke="rgb(140,0,255)" stroke-width="2" fill="none"/>
<polyline points="3707.19,2562.24,550.616,5665.45" stroke="rgb(255,0,221)" stroke-width="2" fill="none"/>
<polyline points="1497.81,2569.87,799.465,3432.66" stroke="rgb(0,216,255)" stroke-width="2" fill="none"/>
<polyline points="1373.87,2574.83,881.313,5404.32" stroke="rgb(255,97,0)" stroke-width="2" fill="none"/>
<polyline points="3767.67,2581.05,610.108,5684.17" stroke="rgb(255,0,153)" stroke-width="2" fill="none"/>
<polyline points="3892.49,2591.18,735.81,5686.62" stroke="rgb(0,255,144)" stroke-width="2" fill="none"/>
<polyline points="3675.02,2596.85,3168.9,5567.63" stroke="rgb(255,153,0)" stroke-width="2" fill="none"/>
<polyline points="3743.8,2601.12,587.523,5704.61" stroke="rgb(255,0,169)" stroke-width="2" fill="none"/>
<polyline points="3687.76,2601.13,526.853,5706.1" stroke="rgb(195,0,255)" stroke-width="2" fill="none"/>
<polyline points="3851.28,2604.61,694.06,5703.14" stroke="rgb(0,255,237)" stroke-width="2" fill="none"/>
<polyline points="3658.41,2605.59,498.913,5712.89" stroke="rgb(46,0,255)" stroke-width="2" fill="none"/>
<polyline points="3441.58,2609.47,260.544,5726.69" stroke="rgb(255,119,0)" stroke-width="2" fill="none"/>
<polyline points="3726.95,2609.91,568.412,5713.23" stroke="rgb(255,102,0)" stroke-width="2" fill="none"/>
<polyline points="3926.48,2610.27,770.416,5704.74" stroke="rgb(255,165,0)" stroke-width="2" fill="none"/>
<polyline points="3776.42,2619.32,619.216,5721.17" stroke="rgb(0,255,110)" stroke-width="2" fill="none"/>
<polyline points="3639.47,2621.69,478.212,5728.92" stroke="rgb(0,255,182)" stroke-width="2" fill="none"/>
<polyline points="3558.9,2628.77,384.478,5740.71" stroke="rgb(0,255,72)" stroke-width="2" fill="none"/>
<polyline points="3946.14,2641.69,788.169,5734.6" stroke="rgb(246,0,255)" stroke-width="2" fill="none"/>
<polyline points="3733.81,2664.85,573.11,5769.81" stroke="rgb(161,0,255)" stroke-width="2" fill="none"/>
<polyline points="3714.67,2665.76,553.449,5769.02" stroke="rgb(178,0,255)" stroke-width="2" fill="none"/>
<polyline points="3539.17,2672.53,364.755,5787.02" stroke="rgb(38,0,255)" stroke-width="2" fill="none"/>
<polyline points="2918.03,2681.91,1170.13,4965.49" stroke="rgb(255,0,80)" stroke-width="2" fill="none"/>
<polyline points="3876.69,2689.49,717.926,5791.87" stroke="rgb(0,255,140)" stroke-width="2" fill="none"/>
<polyline points="3784.63,2713.34,624.691,5815.56" stroke="rgb(0,255,148)" stroke-width="2" fill="none"/>
<polyline points="3660.42,2729.08,995.968,5777.4" stroke="rgb(255,0,174)" stroke-width="2" fill="none"/>
<polyline points="3492.38,2732.67,315.838,5852.69" stroke="rgb(0,255,76)" stroke-width="2" fill="none"/>
<polyline points="3394.6,2734.7,193.017,5862.68" stroke="rgb(255,102,0)" stroke-width="2" fill="none"/>
<polyline points="1504.55,2736.29,717.572,5044.39" stroke="rgb(0,127,255)" stroke-width="2" fill="none"/>
<polyline points="3486.71,2737.43,316.918,5852.9" stroke="rgb(242,0,255)" stroke-width="2" fill="none"/>
<polyline points="3609.65,2747.17,720.393,5850.37" stroke="rgb(0,255,110)" stroke-width="2" fill="none"/>
<polyline points="3637.81,2747.31,473.367,5858.06" stroke="rgb(255,0,29)" stroke-width="2" fill="none"/>
<polyline points="3697.74,2748.7,3619.37,5803.24" stroke="rgb(229,255,0)" stroke-width="2" fill="none"/>
<polyline points="3883.32,2751.77,3149.84,5848.73" stroke="rgb(255,0,80)" stroke-width="2" fill="none"/>
<polyline points="3923.12,2753.78,763.478,5857.03" stroke="rgb(255,0,233)" stroke-width="2" fill="none"/>
<polyline points="3478.58,2771.33,306.153,5895.38" stroke="rgb(186,0,255)" stroke-width="2" fill="none"/>
<polyline points="3931.65,2780.4,770.623,5875.68" stroke="rgb(255,0,33)" stroke-width="2" fill="none"/>
<polyline points="3808.47,2791.41,645.877,5895.43" stroke="rgb(0,255,127)" stroke-width="2" fill="none"/>
<polyline points="2524.29,2795.38,2445.23,4849.62" stroke="rgb(216,255,0)" stroke-width="2" fill="none"/>
<polyline points="3948.66,2796.63,787.263,5893.63" stroke="rgb(0,255,72)" stroke-width="2" fill="none"/>
<polyline points="3791.96,2807.55,629.926,5913.09" stroke="rgb(114,255,0)" stroke-width="2" fill="none"/>
<polyline points="3364.78,2816.87,2757.03,5844.66" stroke="rgb(255,242,0)" stroke-width="2" fill="none"/>
<polyline points="3325.51,2818.67,3330.96,5824.58" stroke="rgb(255,0,204)" stroke-width="2" fill="none"/>
<polyline points="628.104,2834.24,3751.49,5505.07" stroke="rgb(0,59,255)" stroke-width="2" fill="none"/>
<polyline points="3221.55,2835.17,1472.2,5913.27" stroke="rgb(255,0,127)" stroke-width="2" fill="none"/>
<polyline points="3355.24,2836.11,2094.1,5888.66" stroke="rgb(0,255,174)" stroke-width="2" fill="none"/>
<polyline points="682.342,2838.63,2271.2,3668.07" stroke="rgb(153,0,255)" stroke-width="2" fill="none"/>
<polyline points="3577.65,2838.96,410.585,5958.24" stroke="rgb(255,148,0)" stroke-width="2" fill="none"/>
<polyline points="2676.06,2851.1,672.942,5003.4" stroke="rgb(199,0,255)" stroke-width="2" fill="none"/>
<polyline points="3649.12,2861.75,3824.88,5810.99" stroke="rgb(63,0,255)" stroke-width="2" fill="none"/>
<polyline points="3351.59,2908.33,3532.08,5906.7" stroke="rgb(110,255,0)" stroke-width="2" fill="none"/>
<polyline points="1004.74,2934.77,2432.73,5692.69" stroke="rgb(208,255,0)" stroke-width="2" fill="none"/>
<polyline points="3168.42,2953.64,24.1595,5176.7" stroke="rgb(0,255,220)" stroke-width="2" fill="none"/>
<polyline points="3042.55,2961.77,1885.55,3994.26" stroke="rgb(255,0,42)" stroke-width="2" fill="none"/>
<circle cx="3709.35" cy="174.701" r="4" stroke="rgb(255,174,0)" stroke-width="2" fill="none"/>
<circle cx="657.516" cy="4030.4" r="4" stroke="rgb(255,174,0)" stroke-width="2" fill="none"/>
<circle cx="2235.18" cy="216.391" r="4" stroke="rgb(55,255,0)" stroke-width="2" fill="none"/>
<circle cx="154.021" cy="3668.33" r="4" stroke="rgb(55,255,0)" stroke-width="2" fill="none"/>
<circle cx="3948.24" cy="228.352" r="4" stroke="rgb(0,110,255)" stroke-width="2" fill="none"/>
<circle cx="502.482" cy="3577.99" r="4" stroke="rgb(0,110,255)" stroke-width="2" fill="none"/>
<circle cx="3982.53" cy="283.839" r="4" stroke="rgb(0,85,255)" stroke-width="2" fill="none"/>
<circle cx="60.073" cy="3572.94" r="4" stroke="rgb(0,85,255)" stroke-width="2" fill="none"/>
<circle cx="3511.85" cy="373.598" r="4" stroke="rgb(131,255,0)" stroke-width="2" fill="none"/>
<circle cx="497.116" cy="4063.52" r="4" stroke="rgb(131,255,0)" stroke-width="2" fill="none"/>
<circle cx="2147.13" cy="534.859" r="4" stroke="rgb(17,0,255)" stroke-width="2" fill="none"/>
<circle cx="2144.86" cy="4443.81" r="4" stroke="rgb(17,0,255)" stroke-width="2" fill="none"/>
<circle cx="2098.22" cy="562.216" r="4" stroke="rgb(255,0,178)" stroke-width="2" fill="none"/>
<circle cx="2777.76" cy="3555.28" r="4" stroke="rgb(255,0,178)" stroke-width="2" fill="none"/>
<circle cx="704.999" cy="566.733" r="4" stroke="rgb(0,178,255)" stroke-width="2" fill="none"/>
<circle cx="1882.6" cy="3347.99" r="4" stroke="rgb(0,178,255)" stroke-width="2" fill="none"/>
<circle cx="2085.8" cy="635.492" r="4" stroke="rgb(255,0,161)" stroke-width="2" fill="none"/>
<circle cx="1418.51" cy="4015.77" r="4" stroke="rgb(255,0,161)" stroke-width="2" fill="none"/>
<circle cx="2144.94" cy="651.841" r="4" stroke="rgb(255,0,68)" stroke-width="2" fill="none"/>
<circle cx="1692.67" cy="3466.23" r="4" stroke="rgb(255,0,68)" stroke-width="2" fill="none"/>
<circle cx="3586.45" cy="661.833" r="4" stroke="rgb(255,0,233)" stroke-width="2" fill="none"/>
<circle cx="2811.34" cy="3526.56" r="4" stroke="rgb(255,0,233)" stroke-width="2" fill="none"/>
<circle cx="2766.77" cy="702.952" r="4" stroke="rgb(233,255,0)" stroke-width="2" fill="none"/>
<circle cx="2687.79" cy="3938.91" r="4" stroke="rgb(233,255,0)" stroke-width="2" fill="none"/>
<circle cx="3050.87" cy="718.877" r="4" stroke="rgb(4,0,255)" stroke-width="2" fill="none"/>
<circle cx="3691.6" cy="3583.24" r="4" stroke="rgb(4,0,255)" stroke-width="2" fill="none"/>
<circle cx="2669.84" cy="719.106" r="4" stroke="rgb(114,0,255)" stroke-width="2" fill="none"/>
<circle cx="1052.87" cy="3566.49" r="4" stroke="rgb(114,0,255)" stroke-width="2" fill="none"/>
<circle cx="2099.95" cy="726.586" r="4" stroke="rgb(4,0,255)" stroke-width="2" fill="none"/>
<circle cx="764.749" cy="4004.39" r="4" stroke="rgb(4,0,255)" stroke-width="2" fill="none"/>
<circle cx="2528.18" cy="733.662" r="4" stroke="rgb(0,255,46)" stroke-width="2" fill="none"/>
<circle cx="125.997" cy="3573.56" r="4" stroke="rgb(0,255,46)" stroke-width="2" fill="none"/>
<circle cx="3523.9" cy="754.558" r="4" stroke="rgb(21,255,0)" stroke-width="2" fill="none"/>
<circle cx="1535.83" cy="5836.1" r="4" stroke="rgb(21,255,0)" stroke-width="2" fill="none"/>
<circle cx="1613.87" cy="907.969" r="4" stroke="rgb(246,255,0)" stroke-width="2" fill="none"/>
<circle cx="214.235" cy="4691.57" r="4" stroke="rgb(246,255,0)" stroke-width="2" fill="none"/>
<circle cx="3259.8" cy="933.405" r="4" stroke="rgb(0,255,114)" stroke-width="2" fill="none"/>
<circle cx="3568.57" cy="4985.38" r="4" stroke="rgb(0,255,114)" stroke-width="2" fill="none"/>
<circle cx="573.927" cy="1051.71" r="4" stroke="rgb(255,153,0)" stroke-width="2" fill="none"/>
<circle cx="78.7414" cy="4831.75" r="4" stroke="rgb(255,153,0)" stroke-width="2" fill="none"/>
<circle cx="1176.16" cy="1074.98" r="4" stroke="rgb(255,0,38)" stroke-width="2" fill="none"/>
<circle cx="2433.36" cy="3665.04" r="4" stroke="rgb(255,0,38)" stroke-width="2" fill="none"/>
<circle cx="1740.91" cy="1342.9" r="4" stroke="rgb(0,153,255)" stroke-width="2" fill="none"/>
<circle cx="1717.62" cy="3955.38" r="4" stroke="rgb(0,153,255)" stroke-width="2" fill="none"/>
<circle cx="3941.72" cy="1393.89" r="4" stroke="rgb(255,0,246)" stroke-width="2" fill="none"/>
<circle cx="763.673" cy="4479.87" r="4" stroke="rgb(255,0,246)" stroke-width="2" fill="none"/>
<circle cx="2544.4" cy="1413.22" r="4" stroke="rgb(0,255,140)" stroke-width="2" fill="none"/>
<circle cx="3525.23" cy="5837.17" r="4" stroke="rgb(0,255,140)" stroke-width="2" fill="none"/>
<circle cx="3367.01" cy="1492.44" r="4" stroke="rgb(221,0,255)" stroke-width="2" fill="none"/>
<circle cx="179.355" cy="4580.6" r="4" stroke="rgb(221,0,255)" stroke-width="2" fill="none"/>
<circle cx="3317.5" cy="1493.61" r="4" stroke="rgb(0,255,93)" stroke-width="2" fill="none"/>
<circle cx="243.78" cy="4581.2" r="4" stroke="rgb(0,255,93)" stroke-width="2" fill="none"/>
<circle cx="2377.55" cy="1520.39" r="4" stroke="rgb(0,255,89)" stroke-width="2" fill="none"/>
<circle cx="327.42" cy="4652.04" r="4" stroke="rgb(0,255,89)" stroke-width="2" fill="none"/>
<circle cx="3429.99" cy="1528.76" r="4" stroke="rgb(255,0,17)" stroke-width="2" fill="none"/>
<circle cx="57.0711" cy="4618.96" r="4" stroke="rgb(255,0,17)" stroke-width="2" fill="none"/>
<circle cx="3669.06" cy="1544.83" r="4" stroke="rgb(161,0,255)" stroke-width="2" fill="none"/>
<circle cx="489.545" cy="4630.81" r="4" stroke="rgb(161,0,255)" stroke-width="2" fill="none"/>
<circle cx="2787.05" cy="1569.92" r="4" stroke="rgb(106,255,0)" stroke-width="2" fill="none"/>
<circle cx="175.454" cy="4708.39" r="4" stroke="rgb(106,255,0)" stroke-width="2" fill="none"/>
<circle cx="3608.89" cy="1584.54" r="4" stroke="rgb(255,199,0)" stroke-width="2" fill="none"/>
<circle cx="429.354" cy="4673.42" r="4" stroke="rgb(255,199,0)" stroke-width="2" fill="none"/>
<circle cx="3617.97" cy="1616.96" r="4" stroke="rgb(0,255,25)" stroke-width="2" fill="none"/>
<circle cx="440.805" cy="4704.8" r="4" stroke="rgb(0,255,25)" stroke-width="2" fill="none"/>
<circle cx="3638.99" cy="1709.66" r="4" stroke="rgb(255,46,0)" stroke-width="2" fill="none"/>
<circle cx="459.158" cy="4796.71" r="4" stroke="rgb(255,46,0)" stroke-width="2" fill="none"/>
<circle cx="3490.36" cy="1741.5" r="4" stroke="rgb(255,76,0)" stroke-width="2" fill="none"/>
<circle cx="3676.9" cy="5099.06" r="4" stroke="rgb(255,76,0)" stroke-width="2" fill="none"/>
<circle cx="3604.17" cy="1751.11" r="4" stroke="rgb(216,255,0)" stroke-width="2" fill="none"/>
<circle cx="2965.76" cy="5254.98" r="4" stroke="rgb(216,255,0)" stroke-width="2" fill="none"/>
<circle cx="1651.66" cy="1772.8" r="4" stroke="rgb(33,255,0)" stroke-width="2" fill="none"/>
<circle cx="2441.18" cy="5698.79" r="4" stroke="rgb(33,255,0)" stroke-width="2" fill="none"/>
<circle cx="2460.52" cy="1777.42" r="4" stroke="rgb(55,255,0)" stroke-width="2" fill="none"/>
<circle cx="2584.89" cy="5869.89" r="4" stroke="rgb(55,255,0)" stroke-width="2" fill="none"/>
<circle cx="1977.11" cy="1777.81" r="4" stroke="rgb(255,80,0)" stroke-width="2" fill="none"/>
<circle cx="2414.93" cy="4997.75" r="4" stroke="rgb(255,80,0)" stroke-width="2" fill="none"/>
<circle cx="683.41" cy="1811.7" r="4" stroke="rgb(21,255,0)" stroke-width="2" fill="none"/>
<circle cx="2138.45" cy="4720.16" r="4" stroke="rgb(21,255,0)" stroke-width="2" fill="none"/>
<circle cx="1134.6" cy="1843.6" r="4" stroke="rgb(0,255,229)" stroke-width="2" fill="none"/>
<circle cx="3573.67" cy="4209.8" r="4" stroke="rgb(0,255,229)" stroke-width="2" fill="none"/>
<circle cx="822.621" cy="1845.41" r="4" stroke="rgb(97,0,255)" stroke-width="2" fill="none"/>
<circle cx="1738.91" cy="4399.08" r="4" stroke="rgb(97,0,255)" stroke-width="2" fill="none"/>
<circle cx="3631.53" cy="1859.87" r="4" stroke="rgb(255,216,0)" stroke-width="2" fill="none"/>
<circle cx="3568.55" cy="4900.56" r="4" stroke="rgb(255,216,0)" stroke-width="2" fill="none"/>
<circle cx="3639.06" cy="1948.03" r="4" stroke="rgb(255,8,0)" stroke-width="2" fill="none"/>
<circle cx="3298.11" cy="3986.13" r="4" stroke="rgb(255,8,0)" stroke-width="2" fill="none"/>
<circle cx="3709.26" cy="1997.85" r="4" stroke="rgb(114,255,0)" stroke-width="2" fill="none"/>
<circle cx="546.205" cy="5088.86" r="4" stroke="rgb(114,255,0)" stroke-width="2" fill="none"/>
<circle cx="3581.44" cy="2005.97" r="4" stroke="rgb(255,140,0)" stroke-width="2" fill="none"/>
<circle cx="416.197" cy="5100.37" r="4" stroke="rgb(255,140,0)" stroke-width="2" fill="none"/>
<circle cx="1111.61" cy="2006.86" r="4" stroke="rgb(255,0,68)" stroke-width="2" fill="none"/>
<circle cx="3144.16" cy="4898.9" r="4" stroke="rgb(255,0,68)" stroke-width="2" fill="none"/>
<circle cx="3798.54" cy="2009.6" r="4" stroke="rgb(255,89,0)" stroke-width="2" fill="none"/>
<circle cx="636.636" cy="5099.39" r="4" stroke="rgb(255,89,0)" stroke-width="2" fill="none"/>
<circle cx="3721.03" cy="2016.71" r="4" stroke="rgb(0,255,131)" stroke-width="2" fill="none"/>
<circle cx="557.883" cy="5108.08" r="4" stroke="rgb(0,255,131)" stroke-width="2" fill="none"/>
<circle cx="3261.33" cy="2017.94" r="4" stroke="rgb(0,255,225)" stroke-width="2" fill="none"/>
<circle cx="82.7302" cy="5120" r="4" stroke="rgb(0,255,225)" stroke-width="2" fill="none"/>
<circle cx="3356.85" cy="2018.93" r="4" stroke="rgb(255,119,0)" stroke-width="2" fill="none"/>
<circle cx="183.948" cy="5118.39" r="4" stroke="rgb(255,119,0)" stroke-width="2" fill="none"/>
<circle cx="3613.86" cy="2028.51" r="4" stroke="rgb(255,0,55)" stroke-width="2" fill="none"/>
<circle cx="448.456" cy="5122.69" r="4" stroke="rgb(255,0,55)" stroke-width="2" fill="none"/>
<circle cx="3811.26" cy="2039.9" r="4" stroke="rgb(186,0,255)" stroke-width="2" fill="none"/>
<circle cx="650.024" cy="5130.15" r="4" stroke="rgb(186,0,255)" stroke-width="2" fill="none"/>
<circle cx="3741.38" cy="2041.09" r="4" stroke="rgb(93,0,255)" stroke-width="2" fill="none"/>
<circle cx="579.645" cy="5132.8" r="4" stroke="rgb(93,0,255)" stroke-width="2" fill="none"/>
<circle cx="2978.84" cy="2041.35" r="4" stroke="rgb(255,0,12)" stroke-width="2" fill="none"/>
<circle cx="2170.25" cy="5856.4" r="4" stroke="rgb(255,0,12)" stroke-width="2" fill="none"/>
<circle cx="3489.51" cy="2041.86" r="4" stroke="rgb(0,12,255)" stroke-width="2" fill="none"/>
<circle cx="321.129" cy="5138.58" r="4" stroke="rgb(0,12,255)" stroke-width="2" fill="none"/>
<circle cx="3612.52" cy="2042.2" r="4" stroke="rgb(80,0,255)" stroke-width="2" fill="none"/>
<circle cx="447.82" cy="5136.39" r="4" stroke="rgb(80,0,255)" stroke-width="2" fill="none"/>
<circle cx="3249.88" cy="2047" r="4" stroke="rgb(157,255,0)" stroke-width="2" fill="none"/>
<circle cx="69.8875" cy="5148.83" r="4" stroke="rgb(157,255,0)" stroke-width="2" fill="none"/>
<circle cx="3759.85" cy="2051.93" r="4" stroke="rgb(255,89,0)" stroke-width="2" fill="none"/>
<circle cx="597.782" cy="5143.31" r="4" stroke="rgb(255,89,0)" stroke-width="2" fill="none"/>
<circle cx="3667.23" cy="2052.33" r="4" stroke="rgb(0,255,208)" stroke-width="2" fill="none"/>
<circle cx="505.091" cy="5145.97" r="4" stroke="rgb(0,255,208)" stroke-width="2" fill="none"/>
<circle cx="3725.43" cy="2054.74" r="4" stroke="rgb(255,246,0)" stroke-width="2" fill="none"/>
<circle cx="563.217" cy="5146.82" r="4" stroke="rgb(255,246,0)" stroke-width="2" fill="none"/>
<circle cx="3284.56" cy="2061.43" r="4" stroke="rgb(187,255,0)" stroke-width="2" fill="none"/>
<circle cx="107.553" cy="5163.81" r="4" stroke="rgb(187,255,0)" stroke-width="2" fill="none"/>
<circle cx="3406.62" cy="2062.63" r="4" stroke="rgb(0,255,148)" stroke-width="2" fill="none"/>
<circle cx="235.607" cy="5162.14" r="4" stroke="rgb(0,255,148)" stroke-width="2" fill="none"/>
<circle cx="3347.5" cy="2073.19" r="4" stroke="rgb(0,42,255)" stroke-width="2" fill="none"/>
<circle cx="172.634" cy="5173.87" r="4" stroke="rgb(0,42,255)" stroke-width="2" fill="none"/>
<circle cx="3378.78" cy="2087.52" r="4" stroke="rgb(255,178,0)" stroke-width="2" fill="none"/>
<circle cx="204.882" cy="5188.39" r="4" stroke="rgb(255,178,0)" stroke-width="2" fill="none"/>
<circle cx="3333.6" cy="2096.99" r="4" stroke="rgb(203,0,255)" stroke-width="2" fill="none"/>
<circle cx="157.748" cy="5199.18" r="4" stroke="rgb(203,0,255)" stroke-width="2" fill="none"/>
<circle cx="3308.62" cy="2099.33" r="4" stroke="rgb(0,59,255)" stroke-width="2" fill="none"/>
<circle cx="133.531" cy="5202.94" r="4" stroke="rgb(0,59,255)" stroke-width="2" fill="none"/>
<circle cx="3719.96" cy="2294.94" r="4" stroke="rgb(255,170,0)" stroke-width="2" fill="none"/>
<circle cx="564.401" cy="5390.88" r="4" stroke="rgb(255,170,0)" stroke-width="2" fill="none"/>
<circle cx="3743.5" cy="2296.26" r="4" stroke="rgb(255,0,246)" stroke-width="2" fill="none"/>
<circle cx="588.033" cy="5391.93" r="4" stroke="rgb(255,0,246)" stroke-width="2" fill="none"/>
<circle cx="3822.79" cy="2302.92" r="4" stroke="rgb(0,237,255)" stroke-width="2" fill="none"/>
<circle cx="2563.4" cy="4800.67" r="4" stroke="rgb(0,237,255)" stroke-width="2" fill="none"/>
<circle cx="3823.77" cy="2334.2" r="4" stroke="rgb(255,0,136)" stroke-width="2" fill="none"/>
<circle cx="667.249" cy="5428.09" r="4" stroke="rgb(255,0,136)" stroke-width="2" fill="none"/>
<circle cx="3661.55" cy="2344.35" r="4" stroke="rgb(144,255,0)" stroke-width="2" fill="none"/>
<circle cx="502.091" cy="5443.65" r="4" stroke="rgb(144,255,0)" stroke-width="2" fill="none"/>
<circle cx="2915.67" cy="2344.55" r="4" stroke="rgb(255,191,0)" stroke-width="2" fill="none"/>
<circle cx="1357.51" cy="5520.86" r="4" stroke="rgb(255,191,0)" stroke-width="2" fill="none"/>
<circle cx="3976.12" cy="2355.25" r="4" stroke="rgb(255,212,0)" stroke-width="2" fill="none"/>
<circle cx="821.161" cy="5444.55" r="4" stroke="rgb(255,212,0)" stroke-width="2" fill="none"/>
<circle cx="3684.63" cy="2378.79" r="4" stroke="rgb(38,0,255)" stroke-width="2" fill="none"/>
<circle cx="526.793" cy="5478.49" r="4" stroke="rgb(38,0,255)" stroke-width="2" fill="none"/>
<circle cx="3953.2" cy="2384.11" r="4" stroke="rgb(42,0,255)" stroke-width="2" fill="none"/>
<circle cx="799.46" cy="5473.78" r="4" stroke="rgb(42,0,255)" stroke-width="2" fill="none"/>
<circle cx="3595.77" cy="2393.11" r="4" stroke="rgb(0,42,255)" stroke-width="2" fill="none"/>
<circle cx="3589.29" cy="5404.05" r="4" stroke="rgb(0,42,255)" stroke-width="2" fill="none"/>
<circle cx="3920.07" cy="2406.75" r="4" stroke="rgb(25,0,255)" stroke-width="2" fill="none"/>
<circle cx="765.074" cy="5494.35" r="4" stroke="rgb(25,0,255)" stroke-width="2" fill="none"/>
<circle cx="3968.77" cy="2482.15" r="4" stroke="rgb(0,255,89)" stroke-width="2" fill="none"/>
<circle cx="811.941" cy="5571.63" r="4" stroke="rgb(0,255,89)" stroke-width="2" fill="none"/>
<circle cx="3918.64" cy="2491.63" r="4" stroke="rgb(140,0,255)" stroke-width="2" fill="none"/>
<circle cx="764.783" cy="5584.87" r="4" stroke="rgb(140,0,255)" stroke-width="2" fill="none"/>
<circle cx="3707.19" cy="2562.24" r="4" stroke="rgb(255,0,221)" stroke-width="2" fill="none"/>
<circle cx="550.616" cy="5665.45" r="4" stroke="rgb(255,0,221)" stroke-width="2" fill="none"/>
<circle cx="1497.81" cy="2569.87" r="4" stroke="rgb(0,216,255)" stroke-width="2" fill="none"/>
<circle cx="799.465" cy="3432.66" r="4" stroke="rgb(0,216,255)" stroke-width="2" fill="none"/>
<circle cx="1373.87" cy="2574.83" r="4" stroke="rgb(255,97,0)" stroke-width="2" fill="none"/>
<circle cx="881.313" cy="5404.32" r="4" stroke="rgb(255,97,0)" stroke-width="2" fill="none"/>
<circle cx="3767.67" cy="2581.05" r="4" stroke="rgb(255,0,153)" stroke-width="2" fill="none"/>
<circle cx="610.108" cy="5684.17" r="4" stroke="rgb(255,0,153)" stroke-width="2" fill="none"/>
<circle cx="3892.49" cy="2591.18" r="4" stroke="rgb(0,255,144)" stroke-width="2" fill="none"/>
<circle cx="735.81" cy="5686.62" r="4" stroke="rgb(0,255,144)" stroke-width="2" fill="none"/>
<circle cx="3675.02" cy="2596.85" r="4" stroke="rgb(255,153,0)" stroke-width="2" fill="none"/>
<circle cx="3168.9" cy="5567.63" r="4" stroke="rgb(255,153,0)" stroke-width="2" fill="none"/>
<circle cx="3743.8" cy="2601.12" r="4" stroke="rgb(255,0,169)" stroke-width="2" fill="none"/>
<circle cx="587.523" cy="5704.61" r="4" stroke="rgb(255,0,169)" stroke-width="2" fill="none"/>
<circle cx="3687.76" cy="2601.13" r="4" stroke="rgb(195,0,255)" stroke-width="2" fill="none"/>
<circle cx="526.853" cy="5706.1" r="4" stroke="rgb(195,0,255)" stroke-width="2" fill="none"/>
<circle cx="3851.28" cy="2604.61" r="4" stroke="rgb(0,255,237)" stroke-width="2" fill="none"/>
<circle cx="694.06" cy="5703.14" r="4" stroke="rgb(0,255,237)" stroke-width="2" fill="none"/>
<circle cx="3658.41" cy="2605.59" r="4" stroke="rgb(46,0,255)" stroke-width="2" fill="none"/>
<circle cx="498.913" cy="5712.89" r="4" stroke="rgb(46,0,255)" stroke-width="2" fill="none"/>
<circle cx="3441.58" cy="2609.47" r="4" stroke="rgb(255,119,0)" stroke-width="2" fill="none"/>
<circle cx="260.544" cy="5726.69" r="4" stroke="rgb(255,119,0)" stroke-width="2" fill="none"/>
<circle cx="3726.95" cy="2609.91" r="4" stroke="rgb(255,102,0)" stroke-width="2" fill="none"/>
<circle cx="568.412" cy="5713.23" r="4" stroke="rgb(255,102,0)" stroke-width="2" fill="none"/>
<circle cx="3926.48" cy="2610.27" r="4" stroke="rgb(255,165,0)" stroke-width="2" fill="none"/>
<circle cx="770.416" cy="5704.74" r="4" stroke="rgb(255,165,0)" stroke-width="2" fill="none"/>
<circle cx="3776.42" cy="2619.32" r="4" stroke="rgb(0,255,110)" stroke-width="2" fill="none"/>
<circle cx="619.216" cy="5721.17" r="4" stroke="rgb(0,255,110)" stroke-width="2" fill="none"/>
<circle cx="3639.47" cy="2621.69" r="4" stroke="rgb(0,255,182)" stroke-width="2" fill="none"/>
<circle cx="478.212" cy="5728.92" r="4" stroke="rgb(0,255,182)" stroke-width="2" fill="none"/>
<circle cx="3558.9" cy="2628.77" r="4" stroke="rgb(0,255,72)" stroke-width="2" fill="none"/>
<circle cx="384.478" cy="5740.71" r="4" stroke="rgb(0,255,72)" stroke-width="2" fill="none"/>
<circle cx="3946.14" cy="2641.69" r="4" stroke="rgb(246,0,255)" stroke-width="2" fill="none"/>
<circle cx="788.169" cy="5734.6" r="4" stroke="rgb(246,0,255)" stroke-width="2" fill="none"/>
<circle cx="3733.81" cy="2664.85" r="4" stroke="rgb(161,0,255)" stroke-width="2" fill="none"/>
<circle cx="573.11" cy="5769.81" r="4" stroke="rgb(161,0,255)" stroke-width="2" fill="none"/>
<circle cx="3714.67" cy="2665.76" r="4" stroke="rgb(178,0,255)" stroke-width="2" fill="none"/>
<circle cx="553.449" cy="5769.02" r="4" stroke="rgb(178,0,255)" stroke-width="2" fill="none"/>
<circle cx="3539.17" cy="2672.53" r="4" stroke="rgb(38,0,255)" stroke-width="2" fill="none"/>
<circle cx="364.755" cy="5787.02" r="4" stroke="rgb(38,0,255)" stroke-width="2" fill="none"/>
<circle cx="2918.03" cy="2681.91" r="4" stroke="rgb(255,0,80)" stroke-width="2" fill="none"/>
<circle cx="1170.13" cy="4965.49" r="4" stroke="rgb(255,0,80)" stroke-width="2" fill="none"/>
<circle cx="3876.69" cy="2689.49" r="4" stroke="rgb(0,255,140)" stroke-width="2" fill="none"/>
<circle cx="717.926" cy="5791.87" r="4" stroke="rgb(0,255,140)" stroke-width="2" fill="none"/>
<circle cx="3784.63" cy="2713.34" r="4" stroke="rgb(0,255,148)" stroke-width="2" fill="none"/>
<circle cx="624.691" cy="5815.56" r="4" stroke="rgb(0,255,148)" stroke-width="2" fill="none"/>
<circle cx="3660.42" cy="2729.08" r="4" stroke="rgb(255,0,174)" stroke-width="2" fill="none"/>
<circle cx="995.968" cy="5777.4" r="4" stroke="rgb(255,0,174)" stroke-width="2" fill="none"/>
<circle cx="3492.38" cy="2732.67" r="4" stroke="rgb(0,255,76)" stroke-width="2" fill="none"/>
<circle cx="315.838" cy="5852.69" r="4" stroke="rgb(0,255,76)" stroke-width="2" fill="none"/>
<circle cx="3394.6" cy="2734.7" r="4" stroke="rgb(255,102,0)" stroke-width="2" fill="none"/>
<circle cx="193.017" cy="5862.68" r="4" stroke="rgb(255,102,0)" stroke-width="2" fill="none"/>
<circle cx="1504.55" cy="2736.29" r="4" stroke="rgb(0,127,255)" stroke-width="2" fill="none"/>
<circle cx="717.572" cy="5044.39" r="4" stroke="rgb(0,127,255)" stroke-width="2" fill="none"/>
<circle cx="3486.71" cy="2737.43" r="4" stroke="rgb(242,0,255)" stroke-width="2" fill="none"/>
<circle cx="316.918" cy="5852.9" r="4" stroke="rgb(242,0,255)" stroke-width="2" fill="none"/>
<circle cx="3609.65" cy="2747.17" r="4" stroke="rgb(0,255,110)" stroke-width="2" fill="none"/>
<circle cx="720.393" cy="5850.37" r="4" stroke="rgb(0,255,110)" stroke-width="2" fill="none"/>
<circle cx="3637.81" cy="2747.31" r="4" stroke="rgb(255,0,29)" stroke-width="2" fill="none"/>
<circle cx="473.367" cy="5858.06" r="4" stroke="rgb(255,0,29)" stroke-width="2" fill="none"/>
<circle cx="3697.74" cy="2748.7" r="4" stroke="rgb(229,255,0)" stroke-width="2" fill="none"/>
<circle cx="3619.37" cy="5803.24" r="4" stroke="rgb(229,255,0)" stroke-width="2" fill="none"/>
<circle cx="3883.32" cy="2751.77" r="4" stroke="rgb(255,0,80)" stroke-width="2" fill="none"/>
<circle cx="3149.84" cy="5848.73" r="4" stroke="rgb(255,0,80)" stroke-width="2" fill="none"/>
<circle cx="3923.12" cy="2753.78" r="4" stroke="rgb(255,0,233)" stroke-width="2" fill="none"/>
<circle cx="763.478" cy="5857.03" r="4" stroke="rgb(255,0,233)" stroke-width="2" fill="none"/>
<circle cx="3478.58" cy="2771.33" r="4" stroke="rgb(186,0,255)" stroke-width="2" fill="none"/>
<circle cx="306.153" cy="5895.38" r="4" stroke="rgb(186,0,255)" stroke-width="2" fill="none"/>
<circle cx="3931.65" cy="2780.4" r="4" stroke="rgb(255,0,33)" stroke-width="2" fill="none"/>
<circle cx="770.623" cy="5875.68" r="4" stroke="rgb(255,0,33)" stroke-width="2" fill="none"/>
<circle cx="3808.47" cy="2791.41" r="4" stroke="rgb(0,255,127)" stroke-width="2" fill="none"/>
<circle cx="645.877" cy="5895.43" r="4" stroke="rgb(0,255,127)" stroke-width="2" fill="none"/>
<circle cx="2524.29" cy="2795.38" r="4" stroke="rgb(216,255,0)" stroke-width="2" fill="none"/>
<circle cx="2445.23" cy="4849.62" r="4" stroke="rgb(216,255,0)" stroke-width="2" fill="none"/>
<circle cx="3948.66" cy="2796.63" r="4" stroke="rgb(0,255,72)" stroke-width="2" fill="none"/>
<circle cx="787.263" cy="5893.63" r="4" stroke="rgb(0,255,72)" stroke-width="2" fill="none"/>
<circle cx="3791.96" cy="2807.55" r="4" stroke="rgb(114,255,0)" stroke-width="2" fill="none"/>
<circle cx="629.926" cy="5913.09" r="4" stroke="rgb(114,255,0)" stroke-width="2" fill="none"/>
<circle cx="3364.78" cy="2816.87" r="4" stroke="rgb(255,242,0)" stroke-width="2" fill="none"/>
<circle cx="2757.03" cy="5844.66" r="4" stroke="rgb(255,242,0)" stroke-width="2" fill="none"/>
<circle cx="3325.51" cy="2818.67" r="4" stroke="rgb(255,0,204)" stroke-width="2" fill="none"/>
<circle cx="3330.96" cy="5824.58" r="4" stroke="rgb(255,0,204)" stroke-width="2" fill="none"/>
<circle cx="628.104" cy="2834.24" r="4" stroke="rgb(0,59,255)" stroke-width="2" fill="none"/>
<circle cx="3751.49" cy="5505.07" r="4" stroke="rgb(0,59,255)" stroke-width="2" fill="none"/>
<circle cx="3221.55" cy="2835.17" r="4" stroke="rgb(255,0,127)" stroke-width="2" fill="none"/>
<circle cx="1472.2" cy="5913.27" r="4" stroke="rgb(255,0,127)" stroke-width="2" fill="none"/>
<circle cx="3355.24" cy="2836.11" r="4" stroke="rgb(0,255,174)" stroke-width="2" fill="none"/>
<circle cx="2094.1" cy="5888.66" r="4" stroke="rgb(0,255,174)" stroke-width="2" fill="none"/>
<circle cx="682.342" cy="2838.63" r="4" stroke="rgb(153,0,255)" stroke-width="2" fill="none"/>
<circle cx="2271.2" cy="3668.07" r="4" stroke="rgb(153,0,255)" stroke-width="2" fill="none"/>
<circle cx="3577.65" cy="2838.96" r="4" stroke="rgb(255,148,0)" stroke-width="2" fill="none"/>
<circle cx="410.585" cy="5958.24" r="4" stroke="rgb(255,148,0)" stroke-width="2" fill="none"/>
<circle cx="2676.06" cy="2851.1" r="4" stroke="rgb(199,0,255)" stroke-width="2" fill="none"/>
<circle cx="672.942" cy="5003.4" r="4" stroke="rgb(199,0,255)" stroke-width="2" fill="none"/>
<circle cx="3649.12" cy="2861.75" r="4" stroke="rgb(63,0,255)" stroke-width="2" fill="none"/>
<circle cx="3824.88" cy="5810.99" r="4" stroke="rgb(63,0,255)" stroke-width="2" fill="none"/>
<circle cx="3351.59" cy="2908.33" r="4" stroke="rgb(110,255,0)" stroke-width="2" fill="none"/>
<circle cx="3532.08" cy="5906.7" r="4" stroke="rgb(110,255,0)" stroke-width="2" fill="none"/>
<circle cx="1004.74" cy="2934.77" r="4" stroke="rgb(208,255,0)" stroke-width="2" fill="none"/>
<circle cx="2432.73" cy="5692.69" r="4" stroke="rgb(208,255,0)" stroke-width="2" fill="none"/>
<circle cx="3168.42" cy="2953.64" r="4" stroke="rgb(0,255,220)" stroke-width="2" fill="none"/>
<circle cx="24.1595" cy="5176.7" r="4" stroke="rgb(0,255,220)" stroke-width="2" fill="none"/>
<circle cx="3042.55" cy="2961.77" r="4" stroke="rgb(255,0,42)" stroke-width="2" fill="none"/>
<circle cx="1885.55" cy="3994.26" r="4" stroke="rgb(255,0,42)" stroke-width="2" fill="none"/>
</svg>